<?xml version="1.0" encoding="utf-8"?>
<svg width="497.90000000000003" height="48.818609304652334" viewBox="0 0 370.18518518518516 36.2962962962963" version="1.1" xmlns="http://www.w3.org/2000/svg" xmlns:xlink="http://www.w3.org/1999/xlink" xml:space="preserve"><defs id="SvgjsDefs1987"><linearGradient id="SvgjsLinearGradient1992"><stop id="SvgjsStop1993" stop-color="#7f00ff" offset="0"></stop><stop id="SvgjsStop1994" stop-color="#e100ff" offset="1"></stop></linearGradient></defs><g id="SvgjsG1988" featurekey="symbolFeature-0" transform="matrix(0.6481481481481481,0,0,0.6481481481481481,0,0)" fill="#ff00c8"><path xmlns="http://www.w3.org/2000/svg" d="M57,51v1c0,0.553-0.447,1-1,1H44c-0.553,0-1-0.447-1-1v-1H0v2c0,0,0,3,3,3h94c3,0,3-3,3-3v-2H57z"></path><path xmlns="http://www.w3.org/2000/svg" d="M85,0H15c-1.658,0-3,1.343-3,3v1v41c0,1.657,1.342,3,3,3h1h68h1c1.656,0,3-1.343,3-3V4V3C88,1.343,86.657,0,85,0z M84,44H16  V4h68V44z"></path></g><g id="SvgjsG1989" featurekey="nameFeature-0" transform="matrix(0.6798965902577115,0,0,0.6798965902577115,73.63314876240686,5.149991801395681)" fill="url(#SvgjsLinearGradient1992)"><path d="M23.281 16.875 l0 -15.547 l-6.5625 0 l0 37.344 l6.5625 0 l0 -21.797 z M43.8281 38.5937 l6.4844 0 l0 -19.922 l-6.4844 -9.1406 l0 29.063 z M69.76599999999999 1.4059999999999988 l0 25.703 l-18.359 -25.703 l-7.0313 0 l26.406 37.188 l5.3906 0 l0 -37.188 l-6.4063 0 z M112.813 27.344 c-0.98961 2.3959 -2.3438 4.375 -4.0625 5.9375 c-1.7709 1.6666 -3.8542 2.9688 -6.2501 3.9063 s-5.0781 1.4063 -8.0469 1.4063 l-8.6719 0 l0 -5.9375 l8.5938 0 c1.9791 0 3.776 -0.3125 5.3906 -0.9375 c1.5625 -0.625 2.9166 -1.5104 4.0625 -2.6563 s2.0313 -2.5 2.6563 -4.0625 s0.9375 -3.2813 0.9375 -5.1563 c0 -1.8229 -0.3125 -3.5156 -0.9375 -5.0781 c-0.625 -1.6146 -1.5104 -2.9427 -2.6563 -3.9844 c-1.0416 -1.0938 -2.3958 -1.9791 -4.0624 -2.6563 c-1.6666 -0.625 -3.4635 -0.9375 -5.3906 -0.9375 l-8.5938 0 l0 -5.9375 l8.6719 0 c2.7604 0 5.4166 0.49477 7.9688 1.4844 c2.3959 0.88539 4.5052 2.2135 6.3281 3.9844 c1.7709 1.6146 3.125 3.5938 4.0625 5.9375 c0.98961 2.3959 1.4844 4.8438 1.4844 7.3438 c0 2.7084 -0.49477 5.1563 -1.4844 7.3438 z M126.0938 1.4059999999999988 l27.813 0 l0 5.9375 l-27.813 0 l0 -5.9375 z M126.0938 32.6562 l27.734 0 l0 5.9375 l-27.734 0 l0 -5.9375 z M126.0938 16.875 l25.078 0 l0 5.8594 l-25.078 0 l0 -5.8594 z M168.9844 1.328000000000003 l-7.0313 0 l13.594 37.266 l7.1094 0 l-7.8906 -22.344 z M197.734 1.328000000000003 l-6.875 0 l-8.125 19.844 l3.3594 8.9063 z M206.0938 1.4059999999999988 l27.813 0 l0 5.9375 l-27.813 0 l0 -5.9375 z M206.0938 32.6562 l27.734 0 l0 5.9375 l-27.734 0 l0 -5.9375 z M206.0938 16.875 l25.078 0 l0 5.8594 l-25.078 0 l0 -5.8594 z M247.0313 1.4059999999999988 l6.4063 0 l0 31.25 l19.531 0 l0 5.9375 l-25.938 0 l0 -37.188 z M297.344 32.6562 c-0.78125 -0.15625 -1.5105 -0.3907 -2.1876 -0.7032 c-1.4584 -0.67711 -2.7344 -1.6146 -3.8281 -2.8125 c-1.0416 -1.0938 -1.875 -2.4479 -2.5 -4.0625 c-0.57289 -1.6146 -0.85938 -3.2552 -0.85938 -4.9219 l0 -0.15625 l0 -0.23438 c0 -1.7188 0.28648 -3.3854 0.85938 -5 c0.67711 -1.6666 1.5105 -2.9948 2.5001 -3.9844 c1.0416 -1.1979 2.2916 -2.1094 3.75 -2.7344 c0.88539 -0.41664 1.6406 -0.67703 2.2656 -0.78117 l0 -5.8594 c-1.8229 0.26039 -3.4375 0.70313 -4.8438 1.3281 c-2.2916 0.98961 -4.2448 2.3177 -5.8594 3.9844 s-2.8906 3.6458 -3.8281 5.9374 s-1.4063 4.6875 -1.4063 7.1875 l0 0.15625 l0 0.23438 c0 2.5521 0.46875 4.948 1.4063 7.1876 c0.83336 2.2396 2.0834 4.1927 3.75 5.8594 c1.6666 1.7188 3.6198 3.0469 5.8594 3.9844 c1.4063 0.625 3.0469 1.0677 4.9219 1.3281 l0 -5.9375 z M318.594 20 l0.000076294 -0.23438 c0 -2.5521 -0.46875 -4.948 -1.4063 -7.1876 c-0.9375 -2.2916 -2.2135 -4.2708 -3.8281 -5.9374 c-1.5625 -1.6666 -3.4896 -2.9688 -5.7813 -3.9063 c-1.3021 -0.625 -2.8906 -1.0677 -4.7656 -1.3281 l0 5.9375 l0.9375 0.3125 c0.46875 0.15625 0.83336 0.28648 1.0938 0.39063 c1.4584 0.67711 2.7344 1.6146 3.8281 2.8125 c1.0416 1.0938 1.875 2.4479 2.5 4.0625 c0.57289 1.6146 0.85938 3.2552 0.85938 4.9219 l0 0.15625 l0 0.23438 c0 1.7188 -0.28648 3.3854 -0.85938 5 c-0.67711 1.6666 -1.5105 2.9948 -2.5001 3.9844 c-1.0416 1.1979 -2.2916 2.1094 -3.75 2.7344 c-0.67711 0.3125 -1.3802 0.54688 -2.1094 0.70313 l0 5.9375 c1.5625 -0.20836 3.125 -0.65109 4.6875 -1.3282 c2.1354 -0.88539 4.0885 -2.2135 5.8594 -3.9844 c1.7188 -1.8229 2.9948 -3.802 3.8281 -5.9374 c0.9375 -2.2916 1.4063 -4.6875 1.4063 -7.1875 l0 -0.15625 z M353.438 8.75 c-0.67711 -1.4584 -1.6147 -2.7605 -2.8126 -3.9063 c-1.25 -1.0938 -2.7344 -1.9531 -4.4531 -2.5781 c-1.875 -0.57289 -3.8541 -0.85938 -5.9375 -0.85938 l-14.609 0 l0 5.8594 l14.063 0 c2.3438 0 4.2969 0.57289 5.8594 1.7188 c1.4584 1.0938 2.1875 2.7604 2.1875 5 c0 2.0313 -0.70313 3.6719 -2.1094 4.9219 c-1.5104 1.1979 -3.4895 1.7969 -5.9374 1.7969 l-14.063 0 l0 17.891 l6.4844 0 l0 -11.953 l7.3438 0 c1.9271 0 3.8802 -0.28648 5.8594 -0.85938 c1.8229 -0.57289 3.3854 -1.3802 4.6875 -2.4218 c1.3541 -1.0416 2.4219 -2.3698 3.2031 -3.9844 c0.78125 -1.5625 1.1719 -3.3854 1.1719 -5.4688 c0 -1.9791 -0.3125 -3.6979 -0.9375 -5.1563 z M383.281 16.875 l0 -15.547 l-6.5625 0 l0 37.344 l6.5625 0 l0 -21.797 z M403.8281 38.5937 l6.4844 0 l0 -19.922 l-6.4844 -9.1406 l0 29.063 z M429.766 1.4059999999999988 l0 25.703 l-18.359 -25.703 l-7.0313 0 l26.406 37.188 l5.3906 0 l0 -37.188 l-6.4063 0 z"></path></g></svg>